<?xml version="1.0" standalone="no"?>
<!DOCTYPE svg PUBLIC "-//W3C//DTD SVG 20010904//EN"
 "http://www.w3.org/TR/2001/REC-SVG-20010904/DTD/svg10.dtd">
<svg version="1.0" xmlns="http://www.w3.org/2000/svg"
 width="150.000000pt" height="87.000000pt" viewBox="0 0 150.000000 87.000000"
 preserveAspectRatio="xMidYMid meet">
<metadata>
Created by potrace 1.15, written by Peter Selinger 2001-2017
</metadata>
<g transform="translate(0.000000,87.000000) scale(0.100000,-0.100000)"
fill="#000000" stroke="none">
<path d="M0 660 l0 -210 750 0 750 0 0 210 0 210 -750 0 -750 0 0 -210z m1490
78 c0 -68 -3 -156 -7 -195 l-6 -73 -569 0 -570 0 6 28 5 27 -13 -29 c-11 -24
-19 -28 -59 -30 -26 -1 -47 0 -47 3 0 3 12 19 27 35 28 31 27 31 -7 -1 -36
-33 -37 -33 -138 -33 l-102 0 0 195 0 195 740 0 740 0 0 -122z"/>
<path d="M7 413 c-4 -3 -7 -48 -7 -100 l0 -93 29 0 c20 0 31 6 34 18 4 16 5
16 6 0 1 -13 10 -18 31 -18 25 0 31 5 39 33 l9 32 1 -32 c1 -28 5 -33 26 -33
l26 0 -3 98 -3 97 -34 0 c-34 0 -35 -2 -46 -50 l-12 -50 -7 40 c-4 22 -9 46
-11 53 -5 12 -67 17 -78 5z"/>
<path d="M287 413 c-4 -3 -7 -48 -7 -100 l0 -93 54 0 c69 0 83 6 101 41 29 54
12 120 -36 145 -29 14 -100 19 -112 7z"/>
<path d="M532 404 c-27 -19 -31 -78 -5 -92 14 -9 14 -10 -6 -17 -17 -5 -20
-12 -15 -28 10 -36 32 -52 73 -52 48 0 81 27 81 65 0 32 -11 42 -62 61 -21 7
-38 17 -38 21 0 14 27 9 40 -7 14 -17 46 -20 55 -4 4 5 0 18 -9 28 -9 10 -13
21 -9 26 5 4 3 5 -4 1 -6 -3 -14 -2 -18 4 -9 15 -58 12 -83 -6z"/>
<path d="M677 413 c-4 -3 -7 -39 -7 -79 0 -92 18 -119 80 -119 64 0 80 26 80
127 0 77 -1 79 -22 76 -21 -3 -23 -9 -26 -75 l-3 -73 -29 0 -30 0 0 75 c0 66
-2 75 -18 75 -10 0 -22 -3 -25 -7z"/>
<path d="M866 394 c-31 -32 -31 -34 -6 -67 l20 -26 -20 -6 c-37 -12 -15 -56
38 -76 70 -27 133 50 82 101 -16 16 -17 20 -5 20 23 0 18 47 -7 64 -33 24 -72
20 -102 -10z"/>
<path d="M1031 394 c-25 -32 -26 -43 -6 -71 13 -19 13 -22 0 -27 -20 -7 -19
-39 3 -59 61 -55 170 2 133 70 -5 11 -28 25 -50 33 -23 7 -41 17 -41 22 0 13
27 9 40 -7 18 -21 50 -19 50 3 0 28 -42 62 -77 62 -22 0 -38 -8 -52 -26z"/>
<path d="M1180 320 l0 -100 99 0 c95 0 101 1 120 26 l20 25 17 -25 c10 -16 26
-26 40 -26 30 0 30 11 -1 60 l-25 40 25 40 c31 49 31 60 1 60 -14 0 -30 -10
-40 -26 l-17 -25 -20 25 c-21 27 -59 35 -59 14 0 -7 9 -26 20 -43 25 -38 25
-45 -2 -92 -17 -28 -24 -33 -26 -20 -3 13 -14 17 -53 17 -37 0 -49 4 -49 15 0
11 12 15 45 15 38 0 45 3 45 20 0 17 -7 20 -45 20 -60 0 -58 18 3 22 43 3 47
5 47 28 0 24 -3 25 -72 28 l-73 3 0 -101z"/>
<path d="M120 106 c0 -68 14 -92 35 -62 11 14 14 15 25 1 16 -19 40 -19 68 1
26 18 28 37 7 57 -13 13 -13 16 1 21 29 11 33 6 36 -41 2 -35 7 -48 18 -48 11
0 16 13 18 48 4 65 30 65 34 0 2 -36 7 -49 21 -51 13 -3 17 4 17 30 l1 33 27
-32 c31 -36 81 -43 89 -12 5 17 7 17 34 -3 27 -20 29 -20 53 -4 27 17 34 40
15 51 -6 4 -16 -1 -23 -11 -16 -21 -36 -10 -36 20 0 22 4 24 50 23 l49 -1 3
-45 c3 -38 6 -46 23 -46 17 0 20 7 20 48 0 38 3 47 18 47 10 0 17 8 17 20 0
18 -7 20 -55 20 -31 0 -55 -4 -55 -10 0 -7 -6 -7 -19 0 -29 15 -49 12 -71 -10
-20 -20 -20 -20 -20 0 0 13 -7 20 -20 20 -11 0 -20 -7 -20 -15 0 -14 -3 -14
-22 -1 -26 17 -198 22 -198 6 0 -6 -10 -5 -25 2 -19 8 -31 8 -50 0 -15 -7 -27
-8 -30 -2 -4 6 -13 10 -21 10 -11 0 -14 -15 -14 -64z"/>
<path d="M802 154 c-16 -11 -22 -25 -22 -54 0 -33 5 -42 28 -54 31 -16 65 -7
81 21 9 15 10 16 11 2 0 -9 13 -22 29 -29 33 -13 62 -3 80 28 7 12 10 13 11 3
1 -38 70 -54 93 -21 l14 21 6 -22 c8 -28 31 -19 37 15 l5 27 18 -30 c25 -43
47 -40 47 7 l1 37 14 -33 c17 -39 66 -48 91 -16 10 12 12 11 17 -7 3 -12 12
-19 19 -17 9 3 14 27 16 71 3 62 1 67 -18 67 -12 0 -20 -7 -20 -17 0 -14 -2
-14 -20 2 -26 24 -69 11 -87 -25 l-13 -25 0 33 c0 25 -4 32 -20 32 -14 0 -20
-7 -20 -22 l0 -21 -23 21 c-14 13 -36 22 -55 22 -32 0 -32 0 -32 -51 0 -43 -3
-50 -17 -47 -14 2 -19 15 -21 51 -2 33 -7 47 -18 47 -8 0 -14 -9 -14 -22 l0
-21 -23 21 c-40 38 -91 23 -102 -28 -5 -24 -11 -29 -25 -25 -11 4 -20 -1 -25
-12 -6 -17 -7 -17 -20 0 -22 30 -8 48 31 41 38 -7 44 4 16 29 -23 21 -41 21
-70 1z"/>
</g>
</svg>
